<svg id="svg" xmlns="http://www.w3.org/2000/svg" xmlns:xlink="http://www.w3.org/1999/xlink" width="400" height="400" viewBox="0, 0, 400,400"><g id="svgg"><path id="path0" d="M34.296 1.121 C 17.672 5.753,4.320 19.641,0.822 35.938 C -1.107 44.928,0.047 147.917,2.139 153.463 C 7.251 167.009,17.366 177.124,30.912 182.236 L 35.547 183.984 92.188 183.984 L 148.828 183.984 153.463 182.236 C 167.009 177.124,177.124 167.009,182.236 153.463 L 183.984 148.828 183.984 92.188 L 183.984 35.547 182.236 30.912 C 177.124 17.366,167.009 7.251,153.463 2.139 C 147.769 -0.009,41.607 -0.916,34.296 1.121 M249.609 1.479 C 233.519 6.175,220.990 18.975,216.851 34.946 C 215.796 39.018,215.625 47.007,215.625 92.188 C 215.625 150.476,215.516 149.074,220.865 159.698 C 224.619 167.153,232.847 175.381,240.302 179.135 C 250.926 184.484,249.524 184.375,307.812 184.375 C 352.993 184.375,360.982 184.204,365.054 183.149 C 381.324 178.933,394.558 165.699,398.774 149.429 C 400.612 142.333,400.612 42.042,398.774 34.946 C 394.558 18.676,381.324 5.442,365.054 1.226 C 357.540 -0.721,256.389 -0.499,249.609 1.479 M140.782 32.133 C 146.550 33.363,151.012 37.825,152.242 43.593 C 153.468 49.343,153.468 135.032,152.242 140.782 C 151.567 143.945,150.599 145.682,148.140 148.140 C 143.207 153.074,142.633 153.125,92.188 153.125 C 41.742 153.125,41.168 153.074,36.235 148.140 C 31.301 143.207,31.250 142.633,31.250 92.188 C 31.250 36.867,31.535 35.368,42.609 32.396 C 47.763 31.012,134.441 30.780,140.782 32.133 M360.331 33.810 C 362.724 35.216,364.784 37.276,366.190 39.669 L 368.359 43.359 368.359 92.188 L 368.359 141.016 366.190 144.706 C 364.784 147.099,362.724 149.159,360.331 150.565 L 356.641 152.734 307.813 152.734 L 258.984 152.734 255.294 150.565 C 252.901 149.159,250.841 147.099,249.435 144.706 L 247.266 141.016 247.266 92.188 L 247.266 43.359 249.407 39.716 C 254.374 31.268,253.612 31.371,309.766 31.518 L 356.641 31.641 360.331 33.810 M34.296 216.746 C 17.672 221.378,4.320 235.266,0.822 251.563 C -1.107 260.553,0.047 363.542,2.139 369.088 C 7.251 382.634,17.366 392.749,30.912 397.861 L 35.547 399.609 92.188 399.609 L 148.828 399.609 153.463 397.861 C 167.009 392.749,177.124 382.634,182.236 369.088 L 183.984 364.453 183.984 307.813 L 183.984 251.172 182.236 246.537 C 177.124 232.991,167.009 222.876,153.463 217.764 C 147.769 215.616,41.607 214.709,34.296 216.746 M249.609 217.104 C 233.519 221.800,220.990 234.600,216.851 250.571 C 215.796 254.643,215.625 262.632,215.625 307.813 C 215.625 366.101,215.516 364.699,220.865 375.323 C 224.619 382.778,232.847 391.006,240.302 394.760 C 250.926 400.109,249.524 400.000,307.812 400.000 C 352.993 400.000,360.982 399.829,365.054 398.774 C 381.324 394.558,394.558 381.324,398.774 365.054 C 400.612 357.958,400.612 257.667,398.774 250.571 C 394.558 234.301,381.324 221.067,365.054 216.851 C 357.540 214.904,256.389 215.126,249.609 217.104 M140.782 247.758 C 146.550 248.988,151.012 253.450,152.242 259.218 C 153.468 264.968,153.468 350.657,152.242 356.407 C 151.012 362.175,146.550 366.637,140.782 367.867 C 135.032 369.093,49.343 369.093,43.593 367.867 C 37.825 366.637,33.363 362.175,32.133 356.407 C 30.914 350.692,30.906 264.962,32.124 259.284 C 33.309 253.759,37.332 249.437,42.609 248.021 C 47.763 246.637,134.441 246.405,140.782 247.758 M360.331 249.435 C 362.724 250.841,364.784 252.901,366.190 255.294 L 368.359 258.984 368.359 307.813 L 368.359 356.641 366.190 360.331 C 364.784 362.724,362.724 364.784,360.331 366.190 L 356.641 368.359 307.813 368.359 L 258.984 368.359 255.294 366.190 C 252.901 364.784,250.841 362.724,249.435 360.331 L 247.266 356.641 247.266 307.813 L 247.266 258.984 249.407 255.341 C 254.374 246.893,253.612 246.996,309.766 247.143 L 356.641 247.266 360.331 249.435 " stroke="none" fill-rule="evenodd"></path></g></svg>