<svg id="svg" xmlns="http://www.w3.org/2000/svg" xmlns:xlink="http://www.w3.org/1999/xlink" width="400" height="400" viewBox="0, 0, 400,400"><g id="svgg"><path id="path0" d="M34.766 48.408 C 1.486 53.837,-11.865 94.815,11.817 118.846 C 34.288 141.648,72.355 131.816,81.553 100.835 C 89.957 72.525,64.155 43.613,34.766 48.408 M144.141 62.808 C 115.390 71.984,118.076 112.333,147.757 117.149 C 154.274 118.207,369.598 118.269,376.032 117.215 C 403.798 112.668,409.109 76.085,383.731 64.188 L 379.297 62.109 263.281 61.960 C 170.999 61.841,146.626 62.014,144.141 62.808 M30.952 159.463 C 3.228 165.971,-9.549 201.672,7.695 224.445 C 32.212 256.824,82.794 240.359,82.794 200.000 C 82.794 172.763,57.742 153.173,30.952 159.463 M146.304 172.698 C 119.594 177.970,115.954 215.729,141.174 225.907 L 145.703 227.734 259.311 227.945 C 334.090 228.084,374.392 227.883,377.229 227.359 C 407.491 221.765,407.631 178.400,377.405 172.668 C 372.285 171.697,151.231 171.726,146.304 172.698 M30.683 269.952 C 1.818 277.727,-9.861 313.292,8.870 336.375 C 33.762 367.050,82.813 349.643,82.813 310.134 C 82.813 283.033,56.738 262.935,30.683 269.952 M147.045 282.901 C 120.414 287.335,115.480 324.296,140.007 335.621 L 144.922 337.891 262.109 337.891 L 379.297 337.891 383.731 335.812 C 409.109 323.915,403.798 287.332,376.032 282.785 C 370.252 281.839,152.764 281.949,147.045 282.901 " stroke="none" fill-rule="evenodd"></path></g></svg>