  <svg height="237.11296024524793" viewBox="0 0 350.00000000000006 209.56953557029493" class="object-contain md:object-scale-down"><defs id="SvgjsDefs1982"></defs><g id="SvgjsG1983" featurekey="symbolFeature-0" transform="matrix(1.5969298700209187,0,0,1.5969298700209187,95.15351487518458,-7.984605946001032)" fill="#5782bb"><title xmlns="http://www.w3.org/2000/svg">A</title><path xmlns="http://www.w3.org/2000/svg" d="M14.75647,48.05566A4.09827,4.09827,0,1,0,10.65826,52.154,4.09823,4.09823,0,0,0,14.75647,48.05566Z"></path><path xmlns="http://www.w3.org/2000/svg" d="M83.14362,5.65131a1.052,1.052,0,0,0-1.37354-.57166L6.8172,35.97833a1.052,1.052,0,0,0-.57166,1.37348L7.64386,40.7439A7.89953,7.89953,0,0,1,17.97,45.04144L86.58362,16.7561a1.052,1.052,0,0,0,.57159-1.37353ZM20.93054,40.7417l-7.22223-4.5249,5.76245-2.37543,7.22193,4.5249Zm13.669-5.63489-7.22223-4.5249,5.76245-2.37543,7.222,4.52484Zm13.66876-5.63489-7.222-4.5249,5.76221-2.37543L54.0307,27.0965ZM61.93719,23.837,54.715,19.31213l5.76245-2.37542,7.222,4.5249Zm13.669-5.63489L68.384,13.67725l5.76245-2.37549,7.222,4.5249Z"></path><path xmlns="http://www.w3.org/2000/svg" d="M93.83411,88.8114V49.10767a1.052,1.052,0,0,0-1.05194-1.052H18.56982a7.92062,7.92062,0,0,1-7.91168,7.91181V88.8114A6.18862,6.18862,0,0,0,16.84674,95H87.64551A6.18863,6.18863,0,0,0,93.83411,88.8114ZM52.51233,50.90259h6.23285L53.79279,57.8385H47.55988ZM24.223,57.8385H17.99036l4.95245-6.93591h6.23261Zm13.50452-6.93591h6.23291l-4.9527,6.93591h-6.2326Zm14.51886,41.007A15.49015,15.49015,0,1,1,67.736,76.41943,15.50836,15.50836,0,0,1,52.2464,91.90961ZM68.57751,57.8385h-6.2326l4.95245-6.93591H73.53Zm8.55219,0,4.95239-6.93591H88.3147L83.3623,57.8385Z"></path><path xmlns="http://www.w3.org/2000/svg" d="M52.2464,63.94A12.47943,12.47943,0,1,0,64.72534,76.41943,12.49342,12.49342,0,0,0,52.2464,63.94Zm8.4649,14.21747-11.19238,6.462a2.00714,2.00714,0,0,1-3.01074-1.73822v-12.924a2.00716,2.00716,0,0,1,3.01074-1.73828l11.19238,6.462A2.00694,2.00694,0,0,1,60.7113,78.15747Z"></path></g><g id="SvgjsG1984" featurekey="nameFeature-0" transform="matrix(1.627483191497831,0,0,1.627483191497831,-4.101258387577215,144.07960921274574)" fill="#111111"><path d="M7.56 20.88 l9.28 0 l0 -5.8 c0 -1.52 0.8 -2.72 2.52 -2.72 s2.52 1.2 2.52 2.72 l0 22.32 c0 1.52 -0.8 2.72 -2.52 2.72 s-2.52 -1.2 -2.52 -2.72 l0 -12.2 l-9.28 0 l0 12.2 c0 1.52 -0.8 2.72 -2.52 2.72 s-2.52 -1.2 -2.52 -2.72 l0 -22.32 c0 -1.52 0.8 -2.72 2.52 -2.72 s2.52 1.2 2.52 2.72 l0 5.8 z M52.602000000000004 26.240000000000002 c0 8.96 -6.16 14 -13 14 s-13 -5.04 -13 -14 s6.16 -14 13 -14 s13 5.04 13 14 z M46.922000000000004 26.240000000000002 c0 -5.28 -2.96 -9.44 -7.32 -9.44 s-7.32 4.16 -7.32 9.44 s2.96 9.44 7.32 9.44 s7.32 -4.16 7.32 -9.44 z M67.284 17.28 l0 20.12 c0 1.52 -0.8 2.72 -2.52 2.72 s-2.52 -1.2 -2.52 -2.72 l0 -20.12 l-4.64 0 c-1.44 0 -2.6 -0.76 -2.6 -2.4 s1.16 -2.4 2.6 -2.4 l14.32 0 c1.44 0 2.6 0.76 2.6 2.4 s-1.16 2.4 -2.6 2.4 l-4.64 0 z M89.926 22.44 c1.64 -2 2.6 -4.56 3.96 -7.88 c0.64 -1.56 1.6 -2.2 3.2 -2.2 c3.08 0 3.2 2.36 3.84 6.2 c0.76 4.52 1.44 12.36 1.44 16.92 c0 2.8 -0.2 4.64 -2.48 4.64 c-2.24 0 -2.56 -1.52 -2.56 -3.4 l0 -6.32 c0 -3.48 -0.4 -7.08 -0.96 -10.76 l-0.08 0 c-0.64 2.04 -3.56 8.72 -6.36 8.72 s-5.72 -6.68 -6.36 -8.72 l-0.08 0 c-0.56 3.68 -0.96 7.28 -0.96 10.76 l0 6.32 c0 1.88 -0.32 3.4 -2.56 3.4 c-2.28 0 -2.48 -1.84 -2.48 -4.64 c0 -4.56 0.68 -12.4 1.44 -16.92 c0.64 -3.84 0.76 -6.2 3.84 -6.2 c1.6 0 2.56 0.64 3.2 2.2 c1.36 3.32 2.32 5.88 3.96 7.88 z M132.52800000000002 26.240000000000002 c0 8.96 -6.16 14 -13 14 s-13 -5.04 -13 -14 s6.16 -14 13 -14 s13 5.04 13 14 z M126.84800000000001 26.240000000000002 c0 -5.28 -2.96 -9.44 -7.32 -9.44 s-7.32 4.16 -7.32 9.44 s2.96 9.44 7.32 9.44 s7.32 -4.16 7.32 -9.44 z M146.89 34.68 c3.28 -5.76 4.88 -11.72 5.52 -18.32 c0.24 -2.44 0.4 -4 2.92 -4 c1.4 0 2.52 0.8 2.52 2.88 c0 5.48 -3.28 16.04 -6.12 20.84 c-1.36 2.28 -2.32 4.16 -4.84 4.16 s-3.48 -1.88 -4.84 -4.16 c-2.84 -4.8 -6.12 -15.36 -6.12 -20.84 c0 -2.08 1.12 -2.88 2.52 -2.88 c2.52 0 2.68 1.56 2.92 4 c0.64 6.6 2.24 12.56 5.52 18.32 z M167.93200000000002 15.079999999999998 l0 22.32 c0 1.52 -0.8 2.72 -2.52 2.72 s-2.52 -1.2 -2.52 -2.72 l0 -22.32 c0 -1.52 0.8 -2.72 2.52 -2.72 s2.52 1.2 2.52 2.72 z M179.734 17.04 l0 3.44 l9.6 0 c1.36 0 2.44 0.72 2.44 2.28 s-1.08 2.28 -2.44 2.28 l-9.6 0 l0 10.4 l10 0 c1.36 0 2.44 0.72 2.44 2.28 s-1.08 2.28 -2.44 2.28 l-11.8 0 c-2.64 0 -3.48 -1.36 -3.48 -3.44 l0 -21.36 c0 -1.52 0.84 -2.72 2.2 -2.72 l13.08 0 c1.36 0 2.44 0.72 2.44 2.28 s-1.08 2.28 -2.44 2.28 l-10 0 z M212.616 17.28 l-9.24 0 c-1.24 0 -1.92 0.56 -1.92 1.6 c0 3.64 16.12 0.28 16.12 11.44 c0 5.04 -3.8 9.68 -10.64 9.68 l-8.6 0 c-1.44 0 -2.6 -0.76 -2.6 -2.4 s1.16 -2.4 2.6 -2.4 l6.56 0 c5.2 0 7.4 -1.28 7.4 -4.68 c0 -7.32 -16.12 -1.48 -16.12 -11.56 c0 -4.16 3.16 -6.48 8.16 -6.48 l8.28 0 c1.44 0 2.6 0.76 2.6 2.4 s-1.16 2.4 -2.6 2.4 z"></path></g></svg>