<svg id="svg" version="1.1" xmlns="http://www.w3.org/2000/svg" xmlns:xlink="http://www.w3.org/1999/xlink" width="400" height="400" viewBox="0, 0, 400,400"><g id="svgg"><path id="path0" d="M192.635 7.944 C 192.518 8.133,191.421 8.405,190.198 8.549 C 188.974 8.693,187.664 8.965,187.286 9.153 C 186.909 9.342,185.658 9.925,184.506 10.448 C 183.355 10.972,182.410 11.535,182.406 11.700 C 182.403 11.865,182.080 12.000,181.688 12.000 C 181.297 12.000,180.717 12.360,180.400 12.800 C 180.083 13.240,179.620 13.600,179.371 13.600 C 178.570 13.600,173.200 19.276,173.200 20.122 C 173.200 20.398,172.840 20.883,172.400 21.200 C 171.960 21.517,171.600 22.097,171.600 22.488 C 171.600 22.880,171.420 23.200,171.200 23.200 C 170.980 23.200,170.800 23.436,170.800 23.725 C 170.800 24.013,170.440 24.636,170.000 25.108 C 169.560 25.580,169.200 26.244,169.200 26.583 C 169.200 26.922,169.020 27.200,168.800 27.200 C 168.580 27.200,168.400 27.549,168.400 27.976 C 168.400 28.403,168.220 28.864,168.000 29.000 C 167.780 29.136,167.600 29.597,167.600 30.024 C 167.600 30.451,167.420 30.800,167.200 30.800 C 166.980 30.800,166.800 31.160,166.800 31.600 C 166.800 32.040,166.620 32.400,166.400 32.400 C 166.180 32.400,166.000 32.760,166.000 33.200 C 166.000 33.640,165.820 34.000,165.600 34.000 C 165.380 34.000,165.200 34.360,165.200 34.800 C 165.200 35.240,165.020 35.600,164.800 35.600 C 164.580 35.600,164.400 35.960,164.400 36.400 C 164.400 36.840,164.220 37.200,164.000 37.200 C 163.780 37.200,163.600 37.560,163.600 38.000 C 163.600 38.440,163.420 38.800,163.200 38.800 C 162.980 38.800,162.800 39.160,162.800 39.600 C 162.800 40.040,162.620 40.400,162.400 40.400 C 162.180 40.400,162.000 40.745,162.000 41.167 C 162.000 41.588,161.856 41.993,161.679 42.067 C 161.238 42.250,158.400 48.247,158.400 48.995 C 158.400 49.328,158.220 49.600,158.000 49.600 C 157.780 49.600,157.600 49.960,157.600 50.400 C 157.600 50.840,157.420 51.200,157.200 51.200 C 156.980 51.200,156.800 51.560,156.800 52.000 C 156.800 52.440,156.620 52.800,156.400 52.800 C 156.180 52.800,156.000 53.053,156.000 53.362 C 156.000 53.671,155.654 54.616,155.230 55.462 C 154.807 56.308,154.223 57.585,153.933 58.300 C 153.642 59.015,153.269 59.600,153.102 59.600 C 152.936 59.600,152.800 59.960,152.800 60.400 C 152.800 60.840,152.620 61.200,152.400 61.200 C 152.180 61.200,152.000 61.560,152.000 62.000 C 152.000 62.440,151.820 62.800,151.600 62.800 C 151.380 62.800,151.200 63.160,151.200 63.600 C 151.200 64.040,151.020 64.400,150.800 64.400 C 150.580 64.400,150.400 64.760,150.400 65.200 C 150.400 65.640,150.220 66.000,150.000 66.000 C 149.780 66.000,149.600 66.360,149.600 66.800 C 149.600 67.240,149.420 67.600,149.200 67.600 C 148.980 67.600,148.800 67.960,148.800 68.400 C 148.800 68.840,148.620 69.200,148.400 69.200 C 148.180 69.200,148.000 69.560,148.000 70.000 C 148.000 70.440,147.820 70.800,147.600 70.800 C 147.380 70.800,147.200 71.160,147.200 71.600 C 147.200 72.040,147.020 72.400,146.800 72.400 C 146.580 72.400,146.400 72.760,146.400 73.200 C 146.400 73.640,146.220 74.000,146.000 74.000 C 145.780 74.000,145.600 74.360,145.600 74.800 C 145.600 75.240,145.420 75.600,145.200 75.600 C 144.980 75.600,144.800 75.834,144.800 76.119 C 144.800 76.405,144.215 77.808,143.500 79.237 C 142.785 80.666,141.963 82.458,141.674 83.218 C 141.384 83.978,140.979 84.913,140.774 85.295 C 140.568 85.677,140.400 86.262,140.400 86.595 C 140.400 86.928,140.220 87.200,140.000 87.200 C 139.780 87.200,139.600 87.560,139.600 88.000 C 139.600 88.440,139.420 88.800,139.200 88.800 C 138.980 88.800,138.800 89.160,138.800 89.600 C 138.800 90.040,138.620 90.400,138.400 90.400 C 138.180 90.400,138.000 90.760,138.000 91.200 C 138.000 91.640,137.820 92.000,137.600 92.000 C 137.380 92.000,137.200 92.270,137.200 92.600 C 137.200 92.930,137.020 93.200,136.800 93.200 C 136.580 93.200,136.400 93.560,136.400 94.000 C 136.400 94.440,136.220 94.800,136.000 94.800 C 135.780 94.800,135.600 95.160,135.600 95.600 C 135.600 96.040,135.420 96.400,135.200 96.400 C 134.980 96.400,134.800 96.760,134.800 97.200 C 134.800 97.640,134.620 98.000,134.400 98.000 C 134.180 98.000,134.000 98.360,134.000 98.800 C 134.000 99.240,133.820 99.600,133.600 99.600 C 133.380 99.600,133.200 99.960,133.200 100.400 C 133.200 100.840,133.020 101.200,132.800 101.200 C 132.580 101.200,132.400 101.560,132.400 102.000 C 132.400 102.440,132.220 102.800,132.000 102.800 C 131.780 102.800,131.600 103.160,131.600 103.600 C 131.600 104.040,131.420 104.400,131.200 104.400 C 130.980 104.400,130.800 104.760,130.800 105.200 C 130.800 105.640,130.620 106.000,130.400 106.000 C 130.180 106.000,130.000 106.360,130.000 106.800 C 130.000 107.240,129.864 107.600,129.698 107.600 C 129.531 107.600,129.161 108.129,128.875 108.775 C 128.089 110.550,124.942 113.602,122.694 114.768 C 122.092 115.080,121.600 115.485,121.600 115.668 C 121.600 115.850,121.071 116.000,120.424 116.000 C 119.777 116.000,119.136 116.180,119.000 116.400 C 118.864 116.620,117.953 116.800,116.976 116.800 C 115.999 116.800,115.200 116.980,115.200 117.200 C 115.200 117.422,114.141 117.600,112.824 117.600 C 111.517 117.600,110.336 117.780,110.200 118.000 C 110.064 118.220,108.883 118.400,107.576 118.400 C 106.259 118.400,105.200 118.578,105.200 118.800 C 105.200 119.025,104.075 119.200,102.624 119.200 C 101.207 119.200,99.936 119.380,99.800 119.600 C 99.664 119.820,98.483 120.000,97.176 120.000 C 95.859 120.000,94.800 120.178,94.800 120.400 C 94.800 120.626,93.667 120.800,92.200 120.800 C 90.733 120.800,89.600 120.974,89.600 121.200 C 89.600 121.425,88.475 121.600,87.024 121.600 C 85.607 121.600,84.336 121.780,84.200 122.000 C 84.064 122.220,82.883 122.400,81.576 122.400 C 80.259 122.400,79.200 122.578,79.200 122.800 C 79.200 123.026,78.067 123.200,76.600 123.200 C 75.133 123.200,74.000 123.374,74.000 123.600 C 74.000 123.822,72.933 124.000,71.600 124.000 C 70.280 124.000,69.200 124.153,69.200 124.340 C 69.200 124.527,67.261 124.797,64.892 124.941 C 62.523 125.085,59.959 125.382,59.195 125.602 C 58.431 125.821,56.985 126.000,55.983 126.000 C 54.980 126.000,53.989 126.165,53.780 126.366 C 53.571 126.568,52.320 126.834,51.000 126.958 C 44.950 127.527,43.775 127.694,43.420 128.035 C 43.211 128.236,42.007 128.400,40.744 128.400 C 39.481 128.400,38.336 128.580,38.200 128.800 C 38.064 129.020,36.894 129.200,35.600 129.200 C 34.306 129.200,33.136 129.380,33.000 129.600 C 32.864 129.820,31.694 130.000,30.400 130.000 C 29.106 130.000,27.936 130.180,27.800 130.400 C 27.664 130.620,26.753 130.800,25.776 130.800 C 24.799 130.800,24.000 130.980,24.000 131.200 C 24.000 131.420,23.381 131.600,22.624 131.600 C 21.867 131.600,21.136 131.780,21.000 132.000 C 20.864 132.220,20.403 132.400,19.976 132.400 C 19.549 132.400,19.200 132.580,19.200 132.800 C 19.200 133.020,18.966 133.200,18.680 133.200 C 17.944 133.200,16.007 134.141,16.003 134.500 C 16.001 134.665,15.640 134.800,15.200 134.800 C 14.760 134.800,14.400 134.980,14.400 135.200 C 14.400 135.420,14.157 135.600,13.859 135.600 C 13.562 135.600,12.754 136.140,12.063 136.800 C 11.372 137.460,10.702 138.000,10.572 138.000 C 10.350 138.000,8.736 139.655,6.300 142.382 C 5.695 143.060,5.200 143.791,5.200 144.007 C 5.200 144.223,5.020 144.400,4.800 144.400 C 4.580 144.400,4.400 144.670,4.400 145.000 C 4.400 145.330,4.220 145.600,4.000 145.600 C 3.780 145.600,3.600 145.960,3.600 146.400 C 3.600 146.840,3.420 147.200,3.200 147.200 C 2.980 147.200,2.800 147.560,2.800 148.000 C 2.800 148.440,2.620 148.800,2.400 148.800 C 2.180 148.800,2.000 149.160,2.000 149.600 C 2.000 150.040,1.820 150.400,1.600 150.400 C 1.380 150.400,1.200 150.925,1.200 151.567 C 1.200 152.208,0.975 152.808,0.700 152.900 C -0.025 153.142,-0.025 172.858,0.700 173.100 C 0.975 173.192,1.200 173.702,1.200 174.233 C 1.200 174.765,1.380 175.200,1.600 175.200 C 1.820 175.200,2.000 175.560,2.000 176.000 C 2.000 176.440,2.180 176.800,2.400 176.800 C 2.620 176.800,2.800 177.160,2.800 177.600 C 2.800 178.040,2.980 178.400,3.200 178.400 C 3.420 178.400,3.600 178.760,3.600 179.200 C 3.600 179.640,3.780 180.000,4.000 180.000 C 4.220 180.000,4.400 180.294,4.400 180.653 C 4.400 181.012,4.724 181.597,5.119 181.953 C 5.514 182.309,6.267 183.230,6.792 184.000 C 7.954 185.706,13.609 191.375,15.780 193.010 C 16.649 193.664,21.599 198.438,26.780 203.618 C 31.961 208.799,36.920 213.566,37.800 214.213 C 38.680 214.859,40.210 216.271,41.200 217.351 C 42.190 218.430,44.137 220.413,45.526 221.757 C 46.915 223.100,50.183 226.270,52.789 228.800 C 55.395 231.330,59.450 235.200,61.799 237.400 C 65.865 241.208,74.781 250.047,76.700 252.174 C 77.195 252.723,77.600 253.448,77.600 253.786 C 77.600 254.124,77.780 254.400,78.000 254.400 C 78.220 254.400,78.400 254.760,78.400 255.200 C 78.400 255.640,78.580 256.000,78.800 256.000 C 79.020 256.000,79.200 256.630,79.200 257.400 C 79.200 258.170,79.380 258.800,79.600 258.800 C 79.837 258.800,80.000 260.267,80.000 262.400 C 80.000 264.533,79.837 266.000,79.600 266.000 C 79.378 266.000,79.200 267.067,79.200 268.400 C 79.200 269.733,79.022 270.800,78.800 270.800 C 78.578 270.800,78.400 271.867,78.400 273.200 C 78.400 274.520,78.236 275.600,78.036 275.600 C 77.835 275.600,77.575 276.635,77.458 277.900 C 77.340 279.165,77.054 281.325,76.822 282.700 C 75.841 288.509,75.564 290.422,75.115 294.500 C 74.854 296.865,74.497 298.800,74.321 298.800 C 74.144 298.800,74.000 299.880,74.000 301.200 C 74.000 302.533,73.822 303.600,73.600 303.600 C 73.378 303.600,73.200 304.667,73.200 306.000 C 73.200 307.333,73.022 308.400,72.800 308.400 C 72.580 308.400,72.400 309.379,72.400 310.576 C 72.400 311.773,72.220 312.864,72.000 313.000 C 71.780 313.136,71.600 314.216,71.600 315.400 C 71.600 316.584,71.420 317.664,71.200 317.800 C 70.980 317.936,70.800 319.016,70.800 320.200 C 70.800 321.384,70.620 322.464,70.400 322.600 C 70.180 322.736,70.000 323.917,70.000 325.224 C 70.000 326.541,69.822 327.600,69.600 327.600 C 69.380 327.600,69.200 328.579,69.200 329.776 C 69.200 330.973,69.020 332.064,68.800 332.200 C 68.580 332.336,68.400 333.517,68.400 334.824 C 68.400 336.141,68.222 337.200,68.000 337.200 C 67.778 337.200,67.600 338.267,67.600 339.600 C 67.600 340.933,67.422 342.000,67.200 342.000 C 66.980 342.000,66.800 342.990,66.800 344.200 C 66.800 345.410,66.620 346.400,66.400 346.400 C 66.178 346.400,66.000 347.467,66.000 348.800 C 66.000 350.133,65.822 351.200,65.600 351.200 C 65.373 351.200,65.200 352.373,65.200 353.920 C 65.200 355.416,65.006 356.834,64.768 357.072 C 64.117 357.723,64.936 368.400,65.637 368.400 C 65.837 368.400,66.000 368.940,66.000 369.600 C 66.000 370.260,66.180 370.800,66.400 370.800 C 66.620 370.800,66.800 371.340,66.800 372.000 C 66.800 372.660,66.946 373.200,67.125 373.200 C 67.304 373.200,67.698 373.830,68.000 374.600 C 68.302 375.370,68.696 376.000,68.875 376.000 C 69.054 376.000,69.200 376.320,69.200 376.712 C 69.200 377.103,69.560 377.683,70.000 378.000 C 70.440 378.317,70.800 378.802,70.800 379.077 C 70.800 379.759,78.010 387.200,78.671 387.200 C 78.962 387.200,79.200 387.380,79.200 387.600 C 79.200 387.820,79.397 388.000,79.638 388.000 C 79.879 388.000,80.554 388.329,81.138 388.730 C 81.722 389.132,82.830 389.693,83.600 389.977 C 84.370 390.261,85.567 390.743,86.260 391.047 C 86.954 391.351,88.248 391.600,89.137 391.600 C 90.026 391.600,90.864 391.780,91.000 392.000 C 91.305 392.493,103.861 392.548,104.165 392.057 C 104.281 391.869,105.270 391.608,106.362 391.479 C 107.454 391.350,109.113 390.874,110.049 390.422 C 110.985 389.970,111.986 389.600,112.275 389.600 C 112.564 389.600,112.800 389.420,112.800 389.200 C 112.800 388.980,113.160 388.800,113.600 388.800 C 114.040 388.800,114.400 388.620,114.400 388.400 C 114.400 388.180,114.745 388.000,115.167 388.000 C 115.588 388.000,115.993 387.865,116.067 387.700 C 116.187 387.430,118.289 386.222,120.697 385.040 C 121.190 384.798,121.595 384.465,121.597 384.300 C 121.599 384.135,121.960 384.000,122.400 384.000 C 122.840 384.000,123.200 383.820,123.200 383.600 C 123.200 383.380,123.470 383.200,123.800 383.200 C 124.130 383.200,124.400 383.020,124.400 382.800 C 124.400 382.580,124.760 382.400,125.200 382.400 C 125.640 382.400,126.000 382.220,126.000 382.000 C 126.000 381.780,126.360 381.600,126.800 381.600 C 127.240 381.600,127.600 381.420,127.600 381.200 C 127.600 380.980,127.960 380.800,128.400 380.800 C 128.840 380.800,129.200 380.620,129.200 380.400 C 129.200 380.180,129.560 380.000,130.000 380.000 C 130.440 380.000,130.800 379.820,130.800 379.600 C 130.800 379.380,131.036 379.200,131.325 379.200 C 131.613 379.200,132.236 378.840,132.708 378.400 C 133.180 377.960,133.844 377.600,134.183 377.600 C 134.522 377.600,134.800 377.420,134.800 377.200 C 134.800 376.980,135.160 376.800,135.600 376.800 C 136.040 376.800,136.400 376.620,136.400 376.400 C 136.400 376.180,136.760 376.000,137.200 376.000 C 137.640 376.000,138.000 375.820,138.000 375.600 C 138.000 375.380,138.253 375.200,138.562 375.200 C 138.870 375.200,140.238 374.570,141.600 373.800 C 142.962 373.030,144.240 372.400,144.438 372.400 C 144.637 372.400,144.800 372.220,144.800 372.000 C 144.800 371.780,145.160 371.600,145.600 371.600 C 146.040 371.600,146.400 371.420,146.400 371.200 C 146.400 370.980,146.760 370.800,147.200 370.800 C 147.640 370.800,148.000 370.620,148.000 370.400 C 148.000 370.180,148.360 370.000,148.800 370.000 C 149.240 370.000,149.600 369.820,149.600 369.600 C 149.600 369.380,149.945 369.200,150.367 369.200 C 150.788 369.200,151.193 369.065,151.267 368.900 C 151.387 368.630,153.489 367.422,155.897 366.240 C 156.390 365.998,156.795 365.665,156.797 365.500 C 156.799 365.335,157.070 365.200,157.400 365.200 C 157.730 365.200,158.000 365.020,158.000 364.800 C 158.000 364.580,158.360 364.400,158.800 364.400 C 159.240 364.400,159.600 364.220,159.600 364.000 C 159.600 363.780,159.960 363.600,160.400 363.600 C 160.840 363.600,161.200 363.420,161.200 363.200 C 161.200 362.980,161.560 362.800,162.000 362.800 C 162.440 362.800,162.800 362.620,162.800 362.400 C 162.800 362.180,163.160 362.000,163.600 362.000 C 164.040 362.000,164.400 361.820,164.400 361.600 C 164.400 361.380,164.760 361.200,165.200 361.200 C 165.640 361.200,166.000 361.020,166.000 360.800 C 166.000 360.580,166.270 360.400,166.600 360.400 C 166.930 360.400,167.200 360.220,167.200 360.000 C 167.200 359.780,167.470 359.600,167.800 359.600 C 168.130 359.600,168.400 359.420,168.400 359.200 C 168.400 358.980,168.672 358.800,169.005 358.800 C 169.338 358.800,169.923 358.629,170.305 358.419 C 170.687 358.210,171.720 357.724,172.600 357.340 C 173.480 356.956,174.290 356.542,174.400 356.421 C 174.593 356.207,177.261 354.742,179.097 353.840 C 179.590 353.598,179.995 353.265,179.997 353.100 C 179.999 352.935,180.360 352.800,180.800 352.800 C 181.240 352.800,181.600 352.620,181.600 352.400 C 181.600 352.180,181.960 352.000,182.400 352.000 C 182.840 352.000,183.200 351.820,183.200 351.600 C 183.200 351.380,183.560 351.200,184.000 351.200 C 184.440 351.200,184.800 351.020,184.800 350.800 C 184.800 350.580,185.160 350.400,185.600 350.400 C 186.040 350.400,186.400 350.254,186.400 350.075 C 186.400 349.896,187.030 349.502,187.800 349.200 C 188.570 348.898,189.200 348.504,189.200 348.325 C 189.200 348.146,189.436 348.000,189.725 348.000 C 190.013 348.000,190.636 347.640,191.108 347.200 C 191.580 346.760,192.244 346.400,192.583 346.400 C 192.922 346.400,193.200 346.220,193.200 346.000 C 193.200 345.780,193.740 345.600,194.400 345.600 C 195.060 345.600,195.600 345.420,195.600 345.200 C 195.600 344.980,195.949 344.800,196.376 344.800 C 196.803 344.800,197.264 344.620,197.400 344.400 C 197.727 343.871,205.200 343.871,205.200 344.400 C 205.200 344.620,205.560 344.800,206.000 344.800 C 206.440 344.800,206.800 344.980,206.800 345.200 C 206.800 345.420,207.124 345.600,207.520 345.600 C 208.414 345.600,210.393 346.494,210.397 346.900 C 210.399 347.065,210.760 347.200,211.200 347.200 C 211.640 347.200,212.000 347.380,212.000 347.600 C 212.000 347.820,212.360 348.000,212.800 348.000 C 213.240 348.000,213.600 348.180,213.600 348.400 C 213.600 348.620,213.960 348.800,214.400 348.800 C 214.840 348.800,215.201 348.935,215.203 349.100 C 215.205 349.265,215.610 349.598,216.103 349.840 C 218.511 351.022,220.613 352.230,220.733 352.500 C 220.807 352.665,221.212 352.800,221.633 352.800 C 222.055 352.800,222.400 352.980,222.400 353.200 C 222.400 353.420,222.760 353.600,223.200 353.600 C 223.640 353.600,224.000 353.780,224.000 354.000 C 224.000 354.220,224.345 354.400,224.767 354.400 C 225.188 354.400,225.593 354.541,225.667 354.714 C 225.740 354.886,227.240 355.709,229.000 356.542 C 230.760 357.375,232.513 358.224,232.895 358.428 C 233.277 358.633,233.862 358.800,234.195 358.800 C 234.528 358.800,234.800 358.980,234.800 359.200 C 234.800 359.420,235.145 359.600,235.567 359.600 C 235.988 359.600,236.393 359.735,236.467 359.900 C 236.634 360.276,238.764 361.575,239.700 361.871 C 240.085 361.993,240.400 362.252,240.400 362.447 C 240.400 362.641,240.760 362.800,241.200 362.800 C 241.640 362.800,242.001 362.935,242.001 363.100 C 242.002 363.265,242.992 363.850,244.200 364.400 C 245.408 364.950,246.398 365.535,246.399 365.700 C 246.399 365.865,246.760 366.000,247.200 366.000 C 247.640 366.000,248.000 366.180,248.000 366.400 C 248.000 366.620,248.360 366.800,248.800 366.800 C 249.240 366.800,249.600 366.980,249.600 367.200 C 249.600 367.420,249.960 367.600,250.400 367.600 C 250.840 367.600,251.200 367.780,251.200 368.000 C 251.200 368.220,251.560 368.400,252.000 368.400 C 252.440 368.400,252.800 368.580,252.800 368.800 C 252.800 369.020,253.160 369.200,253.600 369.200 C 254.040 369.200,254.400 369.380,254.400 369.600 C 254.400 369.820,254.760 370.000,255.200 370.000 C 255.640 370.000,256.000 370.180,256.000 370.400 C 256.000 370.620,256.360 370.800,256.800 370.800 C 257.240 370.800,257.601 370.935,257.603 371.100 C 257.605 371.265,258.010 371.592,258.503 371.826 C 258.996 372.060,260.620 372.915,262.110 373.726 C 263.601 374.537,265.086 375.200,265.410 375.200 C 265.735 375.200,266.000 375.380,266.000 375.600 C 266.000 375.820,266.360 376.000,266.800 376.000 C 267.240 376.000,267.600 376.180,267.600 376.400 C 267.600 376.620,267.960 376.800,268.400 376.800 C 268.840 376.800,269.200 376.980,269.200 377.200 C 269.200 377.420,269.560 377.600,270.000 377.600 C 270.440 377.600,270.800 377.780,270.800 378.000 C 270.800 378.220,271.160 378.400,271.600 378.400 C 272.040 378.400,272.400 378.580,272.400 378.800 C 272.400 379.020,272.760 379.200,273.200 379.200 C 273.640 379.200,274.000 379.346,274.000 379.525 C 274.000 379.704,274.630 380.098,275.400 380.400 C 276.170 380.702,276.800 381.096,276.800 381.275 C 276.800 381.454,277.160 381.600,277.600 381.600 C 278.040 381.600,278.400 381.780,278.400 382.000 C 278.400 382.220,278.745 382.400,279.167 382.400 C 279.588 382.400,279.993 382.535,280.067 382.700 C 280.140 382.865,280.965 383.405,281.900 383.900 C 282.835 384.395,284.365 385.205,285.300 385.700 C 286.235 386.195,287.060 386.735,287.133 386.900 C 287.207 387.065,287.612 387.200,288.033 387.200 C 288.455 387.200,288.800 387.380,288.800 387.600 C 288.800 387.820,289.072 388.000,289.405 388.000 C 289.738 388.000,290.323 388.157,290.705 388.350 C 293.931 389.975,295.020 390.400,295.958 390.400 C 296.553 390.400,297.256 390.616,297.520 390.880 C 298.213 391.573,311.768 391.592,312.460 390.900 C 312.735 390.625,313.466 390.400,314.085 390.400 C 314.704 390.400,315.523 390.241,315.905 390.047 C 316.287 389.852,317.050 389.515,317.600 389.297 C 319.889 388.391,322.400 387.052,322.400 386.737 C 322.400 386.552,322.591 386.400,322.823 386.400 C 323.899 386.400,330.178 380.601,331.168 378.694 C 331.480 378.092,331.885 377.600,332.068 377.600 C 332.250 377.600,332.400 377.364,332.400 377.075 C 332.400 376.787,332.715 376.202,333.100 375.775 C 334.101 374.666,335.600 371.660,335.600 370.762 C 335.600 370.343,335.780 370.000,336.000 370.000 C 336.220 370.000,336.400 369.460,336.400 368.800 C 336.400 368.140,336.580 367.600,336.800 367.600 C 337.020 367.600,337.200 366.711,337.200 365.624 C 337.200 364.537,337.380 363.536,337.600 363.400 C 337.823 363.262,338.000 361.396,338.000 359.176 C 338.000 356.792,337.840 355.200,337.600 355.200 C 337.371 355.200,337.200 354.000,337.200 352.400 C 337.200 350.800,337.029 349.600,336.800 349.600 C 336.580 349.600,336.400 348.610,336.400 347.400 C 336.400 346.190,336.220 345.200,336.000 345.200 C 335.780 345.200,335.600 344.300,335.600 343.200 C 335.600 342.100,335.420 341.200,335.200 341.200 C 334.978 341.200,334.800 340.133,334.800 338.800 C 334.800 337.467,334.622 336.400,334.400 336.400 C 334.180 336.400,334.000 335.410,334.000 334.200 C 334.000 332.990,333.820 332.000,333.600 332.000 C 333.380 332.000,333.200 331.010,333.200 329.800 C 333.200 328.590,333.020 327.600,332.800 327.600 C 332.580 327.600,332.400 326.610,332.400 325.400 C 332.400 324.190,332.220 323.200,332.000 323.200 C 331.780 323.200,331.600 322.311,331.600 321.224 C 331.600 320.137,331.420 319.136,331.200 319.000 C 330.980 318.864,330.800 317.773,330.800 316.576 C 330.800 315.379,330.620 314.400,330.400 314.400 C 330.180 314.400,330.000 313.410,330.000 312.200 C 330.000 310.990,329.820 310.000,329.600 310.000 C 329.380 310.000,329.200 309.100,329.200 308.000 C 329.200 306.900,329.020 306.000,328.800 306.000 C 328.578 306.000,328.400 304.933,328.400 303.600 C 328.400 302.267,328.222 301.200,328.000 301.200 C 327.780 301.200,327.600 300.221,327.600 299.024 C 327.600 297.827,327.420 296.736,327.200 296.600 C 326.980 296.464,326.800 295.564,326.800 294.600 C 326.800 293.636,326.620 292.736,326.400 292.600 C 326.180 292.464,326.000 291.373,326.000 290.176 C 326.000 288.979,325.820 288.000,325.600 288.000 C 325.380 288.000,325.196 287.235,325.192 286.300 C 325.184 284.718,324.907 282.704,323.939 277.200 C 323.726 275.990,323.456 274.055,323.339 272.900 C 323.222 271.745,322.963 270.800,322.763 270.800 C 322.563 270.800,322.400 269.846,322.400 268.680 C 322.400 267.514,322.219 266.379,321.998 266.158 C 321.447 265.607,321.425 256.015,321.973 255.467 C 322.208 255.232,322.400 254.716,322.400 254.320 C 322.400 253.924,322.580 253.600,322.800 253.600 C 323.020 253.600,323.200 253.318,323.200 252.973 C 323.200 252.629,323.650 251.757,324.200 251.036 C 324.750 250.314,325.210 249.561,325.223 249.362 C 325.236 249.163,327.226 247.110,329.645 244.800 C 334.386 240.273,340.303 234.389,343.206 231.313 C 344.200 230.261,346.438 228.140,348.179 226.600 C 349.921 225.060,358.693 216.510,367.674 207.600 C 376.654 198.690,385.486 189.941,387.301 188.158 C 391.723 183.813,394.800 180.351,394.800 179.718 C 394.800 179.433,394.980 179.200,395.200 179.200 C 395.420 179.200,395.600 178.964,395.600 178.675 C 395.600 178.387,395.960 177.764,396.400 177.292 C 396.840 176.820,397.200 176.156,397.200 175.817 C 397.200 175.478,397.380 175.200,397.600 175.200 C 397.820 175.200,398.000 174.840,398.000 174.400 C 398.000 173.960,398.180 173.600,398.400 173.600 C 398.620 173.600,398.800 173.075,398.800 172.433 C 398.800 171.792,399.025 171.192,399.300 171.100 C 399.682 170.972,399.800 168.551,399.800 160.800 C 399.800 153.049,399.682 150.627,399.300 150.500 C 399.025 150.408,398.800 149.988,398.800 149.567 C 398.800 149.145,398.620 148.800,398.400 148.800 C 398.180 148.800,398.000 148.260,398.000 147.600 C 398.000 146.940,397.820 146.400,397.600 146.400 C 397.380 146.400,397.200 146.080,397.200 145.688 C 397.200 145.297,396.840 144.717,396.400 144.400 C 395.960 144.083,395.600 143.503,395.600 143.112 C 395.600 142.720,395.420 142.400,395.200 142.400 C 394.980 142.400,394.800 142.215,394.800 141.989 C 394.800 141.764,394.035 140.782,393.100 139.808 C 392.165 138.833,390.770 137.316,390.000 136.437 C 389.230 135.557,388.420 134.828,388.200 134.818 C 387.980 134.808,387.260 134.331,386.600 133.760 C 385.940 133.188,384.725 132.426,383.900 132.066 C 383.075 131.706,382.400 131.274,382.400 131.106 C 382.400 130.938,381.860 130.800,381.200 130.800 C 380.540 130.800,380.000 130.664,380.000 130.497 C 380.000 130.104,377.096 129.200,375.830 129.200 C 375.289 129.200,374.736 129.020,374.600 128.800 C 374.278 128.279,368.922 128.279,368.600 128.800 C 368.464 129.020,368.087 129.200,367.763 129.200 C 367.028 129.200,364.400 131.784,364.400 132.507 C 364.400 132.800,364.180 133.260,363.910 133.530 C 363.523 133.917,363.523 134.185,363.910 134.805 C 364.180 135.236,364.400 136.038,364.400 136.586 C 364.400 140.053,366.693 142.286,371.763 143.756 C 381.030 146.442,386.342 153.937,385.404 163.000 C 385.145 165.506,385.072 165.744,383.592 169.000 C 382.655 171.060,368.438 185.436,329.668 223.529 C 304.164 248.587,303.513 250.267,308.542 278.000 C 311.427 293.911,312.391 299.281,312.992 302.800 C 313.123 303.570,313.396 305.100,313.597 306.200 C 313.799 307.300,314.165 309.370,314.412 310.800 C 314.659 312.230,315.013 314.210,315.200 315.200 C 315.387 316.190,315.741 318.170,315.988 319.600 C 316.235 321.030,316.600 323.100,316.800 324.200 C 317.000 325.300,317.367 327.370,317.617 328.800 C 318.085 331.487,318.625 334.479,319.205 337.600 C 319.389 338.590,319.733 340.525,319.970 341.900 C 320.206 343.275,320.594 345.525,320.830 346.900 C 321.067 348.275,321.429 350.210,321.636 351.200 C 323.957 362.333,321.275 369.817,313.400 374.188 C 306.767 377.870,302.183 377.236,290.120 370.971 C 286.424 369.052,280.970 366.229,278.000 364.699 C 275.030 363.168,270.440 360.786,267.800 359.404 C 263.182 356.988,258.464 354.550,243.800 347.001 C 240.060 345.076,234.840 342.373,232.200 340.993 C 203.291 325.887,199.053 325.493,179.800 336.124 C 178.480 336.852,175.420 338.497,173.000 339.778 C 170.580 341.059,167.520 342.690,166.200 343.402 C 164.880 344.114,162.411 345.437,160.714 346.342 C 159.017 347.246,156.272 348.709,154.614 349.593 C 152.956 350.477,150.205 351.943,148.500 352.850 C 146.795 353.758,144.320 355.081,143.000 355.790 C 141.680 356.499,138.980 357.942,137.000 358.996 C 128.594 363.470,127.282 364.170,125.000 365.403 C 121.937 367.058,117.134 369.615,112.800 371.899 C 110.930 372.885,108.500 374.191,107.400 374.801 C 95.939 381.163,83.220 376.039,80.189 363.840 C 79.487 361.017,79.624 358.340,80.804 351.800 C 81.003 350.700,81.353 348.675,81.583 347.300 C 81.812 345.925,82.173 343.765,82.384 342.500 C 82.596 341.235,82.963 338.940,83.200 337.400 C 83.437 335.860,83.804 333.565,84.016 332.300 C 84.227 331.035,84.580 328.920,84.800 327.600 C 85.020 326.280,85.380 324.120,85.600 322.800 C 85.820 321.480,86.180 319.320,86.400 318.000 C 86.620 316.680,86.980 314.520,87.200 313.200 C 87.420 311.880,87.780 309.765,88.000 308.500 C 88.220 307.235,89.570 299.000,91.000 290.200 C 92.430 281.400,93.767 273.300,93.970 272.200 C 96.282 259.727,94.968 251.515,89.436 243.861 C 86.927 240.389,86.802 240.264,63.400 217.797 C 57.680 212.305,50.480 205.376,47.400 202.397 C 44.320 199.419,39.370 194.650,36.400 191.799 C 15.270 171.512,14.629 170.665,14.647 163.000 C 14.672 152.477,20.749 146.648,33.600 144.820 C 35.470 144.554,37.990 144.169,39.200 143.965 C 40.410 143.761,50.490 142.245,61.600 140.597 C 72.710 138.949,82.925 137.420,84.300 137.200 C 88.176 136.580,91.180 136.121,100.102 134.784 C 101.696 134.545,103.990 134.192,105.200 134.000 C 107.251 133.674,109.019 133.406,115.898 132.378 C 128.689 130.468,135.989 126.172,141.691 117.200 C 143.165 114.881,144.573 112.034,160.091 80.000 C 161.850 76.370,165.274 69.350,167.701 64.400 C 170.128 59.450,173.590 52.340,175.395 48.600 C 177.200 44.860,179.638 39.820,180.812 37.400 C 183.583 31.689,185.996 28.027,188.152 26.261 C 195.795 19.998,208.014 21.669,213.554 29.736 C 214.182 30.651,224.173 50.282,235.756 73.361 C 257.742 117.166,258.578 118.672,263.274 122.958 C 268.767 127.971,274.295 130.149,285.200 131.595 C 290.261 132.266,293.917 132.801,296.581 133.261 C 304.254 134.586,307.970 133.399,309.762 129.051 C 310.465 127.345,310.634 123.200,310.000 123.200 C 309.780 123.200,309.600 122.917,309.600 122.571 C 309.600 121.853,308.666 120.800,308.029 120.800 C 307.793 120.800,307.600 120.620,307.600 120.400 C 307.600 120.180,307.240 120.000,306.800 120.000 C 306.360 120.000,306.000 119.820,306.000 119.600 C 306.000 119.380,305.280 119.200,304.400 119.200 C 303.520 119.200,302.800 119.020,302.800 118.800 C 302.800 118.571,301.600 118.400,300.000 118.400 C 298.400 118.400,297.200 118.229,297.200 118.000 C 297.200 117.771,296.000 117.600,294.400 117.600 C 292.800 117.600,291.600 117.429,291.600 117.200 C 291.600 116.971,290.400 116.800,288.800 116.800 C 287.200 116.800,286.000 116.629,286.000 116.400 C 286.000 116.180,285.010 116.000,283.800 116.000 C 282.590 116.000,281.600 115.820,281.600 115.600 C 281.600 115.380,280.880 115.200,280.000 115.200 C 279.120 115.200,278.400 115.020,278.400 114.800 C 278.400 114.580,278.040 114.400,277.600 114.400 C 277.160 114.400,276.800 114.220,276.800 114.000 C 276.800 113.780,276.538 113.600,276.217 113.600 C 275.520 113.600,271.496 109.624,270.519 107.970 C 270.138 107.326,269.686 106.800,269.514 106.800 C 269.341 106.800,269.200 106.440,269.200 106.000 C 269.200 105.560,269.020 105.200,268.800 105.200 C 268.580 105.200,268.400 104.840,268.400 104.400 C 268.400 103.960,268.220 103.600,268.000 103.600 C 267.780 103.600,267.600 103.240,267.600 102.800 C 267.600 102.360,267.420 102.000,267.200 102.000 C 266.980 102.000,266.800 101.640,266.800 101.200 C 266.800 100.760,266.620 100.400,266.400 100.400 C 266.180 100.400,266.000 100.040,266.000 99.600 C 266.000 99.160,265.820 98.800,265.600 98.800 C 265.380 98.800,265.200 98.440,265.200 98.000 C 265.200 97.560,265.020 97.200,264.800 97.200 C 264.580 97.200,264.400 96.840,264.400 96.400 C 264.400 95.960,264.220 95.600,264.000 95.600 C 263.780 95.600,263.600 95.240,263.600 94.800 C 263.600 94.360,263.454 94.000,263.275 94.000 C 263.096 94.000,262.702 93.370,262.400 92.600 C 262.098 91.830,261.704 91.200,261.525 91.200 C 261.346 91.200,261.200 90.840,261.200 90.400 C 261.200 89.960,261.020 89.600,260.800 89.600 C 260.580 89.600,260.400 89.240,260.400 88.800 C 260.400 88.360,260.220 88.000,260.000 88.000 C 259.780 88.000,259.600 87.640,259.600 87.200 C 259.600 86.760,259.420 86.400,259.200 86.400 C 258.980 86.400,258.800 86.040,258.800 85.600 C 258.800 85.160,258.620 84.800,258.400 84.800 C 258.180 84.800,258.000 84.496,258.000 84.124 C 258.000 83.347,254.386 75.868,253.913 75.667 C 253.741 75.593,253.600 75.188,253.600 74.767 C 253.600 74.345,253.420 74.000,253.200 74.000 C 252.980 74.000,252.800 73.640,252.800 73.200 C 252.800 72.760,252.620 72.400,252.400 72.400 C 252.180 72.400,252.000 72.040,252.000 71.600 C 252.000 71.160,251.820 70.800,251.600 70.800 C 251.380 70.800,251.200 70.440,251.200 70.000 C 251.200 69.560,251.020 69.200,250.800 69.200 C 250.580 69.200,250.400 68.840,250.400 68.400 C 250.400 67.960,250.220 67.600,250.000 67.600 C 249.780 67.600,249.600 67.240,249.600 66.800 C 249.600 66.360,249.420 66.000,249.200 66.000 C 248.980 66.000,248.800 65.640,248.800 65.200 C 248.800 64.760,248.620 64.400,248.400 64.400 C 248.180 64.400,248.000 64.040,248.000 63.600 C 248.000 63.160,247.820 62.800,247.600 62.800 C 247.380 62.800,247.200 62.440,247.200 62.000 C 247.200 61.560,247.054 61.200,246.875 61.200 C 246.696 61.200,246.302 60.570,246.000 59.800 C 245.698 59.030,245.304 58.400,245.125 58.400 C 244.946 58.400,244.800 58.040,244.800 57.600 C 244.800 57.160,244.620 56.800,244.400 56.800 C 244.180 56.800,244.000 56.440,244.000 56.000 C 244.000 55.560,243.820 55.200,243.600 55.200 C 243.380 55.200,243.200 54.840,243.200 54.400 C 243.200 53.960,243.020 53.600,242.800 53.600 C 242.580 53.600,242.400 53.240,242.400 52.800 C 242.400 52.360,242.220 52.000,242.000 52.000 C 241.780 52.000,241.600 51.722,241.600 51.382 C 241.600 50.628,237.972 43.054,237.521 42.867 C 237.345 42.793,237.200 42.388,237.200 41.967 C 237.200 41.545,237.020 41.200,236.800 41.200 C 236.580 41.200,236.400 40.840,236.400 40.400 C 236.400 39.960,236.220 39.600,236.000 39.600 C 235.780 39.600,235.600 39.240,235.600 38.800 C 235.600 38.360,235.420 38.000,235.200 38.000 C 234.980 38.000,234.800 37.640,234.800 37.200 C 234.800 36.760,234.620 36.400,234.400 36.400 C 234.180 36.400,234.000 36.040,234.000 35.600 C 234.000 35.160,233.820 34.800,233.600 34.800 C 233.380 34.800,233.200 34.440,233.200 34.000 C 233.200 33.560,233.020 33.200,232.800 33.200 C 232.580 33.200,232.400 32.840,232.400 32.400 C 232.400 31.960,232.220 31.600,232.000 31.600 C 231.780 31.600,231.600 31.240,231.600 30.800 C 231.600 30.360,231.420 30.000,231.200 30.000 C 230.980 30.000,230.800 29.640,230.800 29.200 C 230.800 28.760,230.654 28.400,230.475 28.400 C 230.296 28.400,229.902 27.770,229.600 27.000 C 229.298 26.230,228.904 25.600,228.725 25.600 C 228.546 25.600,228.400 25.280,228.400 24.888 C 228.400 24.497,228.040 23.917,227.600 23.600 C 227.160 23.283,226.800 22.703,226.800 22.312 C 226.800 21.920,226.650 21.600,226.468 21.600 C 226.285 21.600,225.880 21.105,225.568 20.500 C 224.586 18.597,219.910 13.600,219.112 13.600 C 218.882 13.600,218.403 13.276,218.047 12.881 C 217.691 12.485,216.140 11.556,214.600 10.815 C 213.060 10.075,211.463 9.303,211.051 9.100 C 210.639 8.898,209.334 8.632,208.151 8.510 C 206.968 8.388,206.000 8.133,206.000 7.944 C 206.000 7.495,192.913 7.494,192.635 7.944 M345.000 125.894 C 343.447 126.683,342.000 128.005,342.000 128.636 C 342.000 128.910,341.795 129.202,341.545 129.285 C 340.754 129.549,341.517 135.358,342.543 136.881 C 346.377 142.570,357.369 142.109,359.800 136.158 C 360.240 135.081,360.735 134.140,360.900 134.067 C 361.350 133.867,361.262 132.400,360.800 132.400 C 360.580 132.400,360.400 131.860,360.400 131.200 C 360.400 130.540,360.220 130.000,360.000 130.000 C 359.780 130.000,359.600 129.722,359.600 129.382 C 359.600 128.615,357.832 126.800,357.085 126.800 C 356.782 126.800,356.401 126.668,356.240 126.506 C 355.067 125.334,346.972 124.893,345.000 125.894 " stroke="none" fill="#1d2443" fill-rule="evenodd"></path><path id="path1" d="M160.921 79.500 C 158.018 85.385,154.448 92.720,152.989 95.800 C 149.299 103.585,143.095 116.159,142.824 116.400 C 142.701 116.510,142.330 117.077,142.000 117.660 C 139.222 122.566,132.450 128.175,126.600 130.413 C 123.018 131.784,121.546 132.095,111.400 133.621 C 110.080 133.819,107.920 134.155,106.600 134.367 C 105.280 134.579,102.558 134.975,100.552 135.246 L 96.904 135.738 96.643 138.369 C 96.500 139.816,96.213 142.350,96.006 144.000 C 93.609 163.131,94.440 191.308,98.017 212.200 C 98.469 214.840,98.931 217.630,99.043 218.400 C 99.155 219.170,99.429 220.610,99.651 221.600 C 100.135 223.753,100.565 225.770,101.227 229.000 C 101.700 231.307,101.979 232.437,103.599 238.600 C 105.898 247.351,108.955 256.995,111.570 263.743 C 112.060 265.008,113.200 264.617,113.200 263.185 C 113.200 262.791,114.035 261.733,115.056 260.834 C 118.913 257.439,124.962 259.019,127.050 263.966 C 127.654 265.398,127.626 266.252,126.845 270.200 C 126.181 273.557,125.922 274.400,125.553 274.400 C 125.359 274.400,125.200 274.636,125.200 274.925 C 125.200 276.372,121.692 278.400,119.191 278.400 C 117.642 278.400,117.626 278.416,118.038 279.500 C 118.894 281.753,125.219 294.680,126.990 297.794 C 127.492 298.678,128.437 300.390,129.090 301.600 C 134.962 312.481,145.403 327.885,154.912 339.694 C 160.618 346.782,159.825 346.265,162.661 344.743 C 163.947 344.053,166.080 342.928,167.400 342.244 C 168.720 341.560,169.860 340.865,169.933 340.700 C 170.007 340.535,170.397 340.400,170.800 340.400 C 171.203 340.400,171.593 340.265,171.667 340.100 C 171.740 339.935,172.610 339.369,173.600 338.843 C 174.590 338.317,176.750 337.164,178.400 336.282 C 187.870 331.215,189.322 330.573,194.000 329.387 C 196.484 328.757,206.011 328.596,207.840 329.153 C 208.478 329.348,209.810 329.732,210.800 330.007 C 212.461 330.470,224.746 336.251,225.200 336.784 C 225.609 337.265,232.223 340.406,232.800 340.394 C 234.368 340.360,243.594 317.813,247.201 305.200 C 247.484 304.210,247.941 302.680,248.216 301.800 C 248.693 300.278,248.974 299.142,250.844 291.200 C 252.238 285.273,252.192 285.517,253.789 275.600 C 256.719 257.407,256.720 230.232,253.791 212.000 C 253.455 209.910,252.995 207.030,252.769 205.600 C 252.543 204.170,252.175 202.190,251.951 201.200 C 251.727 200.210,251.384 198.680,251.188 197.800 C 250.348 194.026,248.676 187.276,248.215 185.800 C 247.940 184.920,247.485 183.390,247.204 182.400 C 246.045 178.325,245.857 177.715,245.168 175.800 C 244.773 174.700,243.642 171.550,242.656 168.800 C 238.309 156.676,233.057 145.866,224.196 130.800 C 215.394 115.837,199.382 96.642,184.600 83.332 C 178.788 78.099,167.095 68.800,166.328 68.800 C 166.257 68.800,163.825 73.615,160.921 79.500 " stroke="none" fill="#fbdb2c" fill-rule="evenodd"></path><path id="path2" d="M94.200 136.011 C 93.100 136.175,90.760 136.524,89.000 136.786 C 87.240 137.048,84.810 137.415,83.600 137.601 C 82.390 137.788,80.050 138.146,78.400 138.397 C 74.354 139.014,70.655 139.583,68.000 139.997 C 66.790 140.186,64.495 140.534,62.900 140.770 C 61.305 141.007,58.695 141.393,57.100 141.630 C 55.505 141.866,53.210 142.213,52.000 142.400 C 49.249 142.826,44.936 143.491,41.800 143.974 C 40.480 144.177,38.140 144.528,36.600 144.755 C 25.676 146.360,22.906 147.426,19.196 151.450 C 16.130 154.777,15.009 157.875,15.018 163.000 C 15.029 169.652,16.247 171.896,23.787 179.159 C 25.979 181.272,29.831 184.980,32.345 187.400 C 34.859 189.820,38.123 192.970,39.598 194.400 C 41.073 195.830,44.152 198.792,46.440 200.982 C 61.155 215.068,81.535 234.773,85.493 238.742 C 90.011 243.272,92.895 248.048,94.341 253.400 C 96.071 259.798,96.017 262.667,93.943 274.600 C 93.714 275.920,93.377 277.900,93.195 279.000 C 92.467 283.395,91.919 286.707,91.571 288.800 C 91.370 290.010,91.029 292.080,90.814 293.400 C 90.598 294.720,90.238 296.880,90.014 298.200 C 89.594 300.672,89.031 304.152,88.430 308.000 C 87.846 311.741,87.583 313.325,87.203 315.400 C 86.861 317.267,86.618 318.693,85.600 324.800 C 85.380 326.120,85.021 328.235,84.802 329.500 C 84.396 331.850,82.660 342.634,81.245 351.600 C 79.937 359.888,79.870 361.182,80.602 364.025 C 82.170 370.111,86.664 374.821,92.760 376.766 C 94.392 377.287,100.927 377.345,101.905 376.847 C 102.287 376.652,103.050 376.316,103.600 376.099 C 105.549 375.332,115.956 370.000,119.400 368.005 C 120.060 367.623,122.490 366.315,124.800 365.099 C 127.110 363.882,130.260 362.211,131.800 361.386 C 133.340 360.560,135.860 359.216,137.400 358.400 C 140.316 356.854,144.104 354.821,148.200 352.602 C 149.520 351.887,152.580 350.269,155.000 349.007 C 157.420 347.745,159.553 346.570,159.739 346.396 C 159.926 346.223,157.847 343.318,155.120 339.941 C 145.492 328.019,135.034 312.615,129.090 301.600 C 128.437 300.390,127.492 298.678,126.990 297.794 C 125.219 294.680,118.894 281.753,118.038 279.500 C 117.626 278.416,117.642 278.400,119.191 278.400 C 121.692 278.400,125.200 276.372,125.200 274.925 C 125.200 274.636,125.359 274.400,125.553 274.400 C 125.922 274.400,126.181 273.557,126.845 270.200 C 127.626 266.252,127.654 265.398,127.050 263.966 C 124.962 259.019,118.913 257.439,115.056 260.834 C 114.035 261.733,113.200 262.791,113.200 263.185 C 113.200 264.617,112.060 265.008,111.570 263.743 C 108.955 256.995,105.898 247.351,103.599 238.600 C 101.979 232.437,101.700 231.307,101.227 229.000 C 100.713 226.493,100.258 224.364,99.623 221.500 C 99.416 220.565,99.155 219.170,99.043 218.400 C 98.931 217.630,98.469 214.840,98.017 212.200 C 94.440 191.308,93.609 163.131,96.006 144.000 C 96.750 138.066,96.913 135.601,96.558 135.656 C 96.361 135.687,95.300 135.847,94.200 136.011 M123.199 260.200 C 126.492 261.902,127.529 266.513,125.871 272.073 C 123.039 281.570,111.149 279.233,112.158 269.378 C 112.951 261.640,117.949 257.485,123.199 260.200 M116.698 290.215 C 120.430 291.774,121.855 295.052,120.833 299.723 C 120.416 301.626,119.952 303.973,118.800 310.000 C 117.715 315.677,117.200 318.297,116.794 320.200 C 116.607 321.080,116.247 322.970,115.994 324.400 C 115.741 325.830,115.364 327.810,115.157 328.800 C 114.949 329.790,114.170 333.706,113.427 337.503 C 112.684 341.299,111.728 345.079,111.303 345.903 C 108.839 350.679,101.793 350.736,99.028 346.002 C 97.804 343.906,97.924 341.244,99.594 333.400 C 100.000 331.497,100.515 328.877,101.600 323.200 C 102.042 320.890,102.586 318.100,102.810 317.000 C 103.034 315.900,103.934 311.220,104.811 306.600 C 107.397 292.974,107.851 291.774,110.960 290.362 C 112.968 289.451,114.758 289.405,116.698 290.215 " stroke="none" fill="#fbe373" fill-rule="evenodd"></path><path id="path3" d="M195.400 22.764 C 189.195 23.992,185.538 27.661,180.812 37.400 C 179.638 39.820,177.200 44.860,175.395 48.600 C 173.590 52.340,170.128 59.450,167.701 64.400 C 165.274 69.350,161.850 76.370,160.091 80.000 C 144.573 112.034,143.165 114.881,141.691 117.200 C 135.989 126.172,128.689 130.468,115.898 132.378 C 109.019 133.406,107.251 133.674,105.200 134.000 C 103.990 134.192,101.740 134.537,100.200 134.767 C 98.660 134.996,96.500 135.357,95.400 135.570 C 92.498 136.130,97.243 135.726,102.200 134.990 C 104.180 134.696,106.610 134.345,107.600 134.210 C 108.590 134.076,110.390 133.804,111.600 133.608 C 112.810 133.411,115.150 133.045,116.800 132.794 C 128.539 131.011,137.482 125.640,142.000 117.660 C 142.330 117.077,142.702 116.510,142.826 116.400 C 143.079 116.177,151.058 100.018,152.669 96.469 C 153.830 93.908,166.015 69.076,166.215 68.861 C 166.614 68.433,178.043 77.429,184.600 83.332 C 199.382 96.642,215.394 115.837,224.196 130.800 C 233.057 145.866,238.309 156.676,242.656 168.800 C 243.642 171.550,244.777 174.700,245.178 175.800 C 245.578 176.900,246.132 178.610,246.407 179.600 C 247.233 182.567,247.566 183.711,248.154 185.600 C 248.666 187.243,250.312 193.864,251.188 197.800 C 251.384 198.680,251.727 200.210,251.951 201.200 C 252.175 202.190,252.543 204.170,252.769 205.600 C 252.995 207.030,253.455 209.910,253.791 212.000 C 256.720 230.232,256.719 257.407,253.789 275.600 C 252.192 285.517,252.238 285.273,250.844 291.200 C 248.974 299.142,248.693 300.278,248.216 301.800 C 247.941 302.680,247.484 304.210,247.201 305.200 C 245.171 312.299,241.444 322.505,238.072 330.200 C 234.249 338.925,233.497 340.379,232.800 340.394 C 232.223 340.406,225.609 337.265,225.200 336.784 C 224.746 336.251,212.461 330.470,210.800 330.007 C 209.810 329.732,208.478 329.348,207.840 329.153 C 207.202 328.959,205.672 328.823,204.440 328.851 L 202.200 328.901 204.980 329.258 C 210.683 329.989,213.303 331.118,232.200 340.993 C 234.840 342.373,240.060 345.076,243.800 347.001 C 258.464 354.550,263.182 356.988,267.800 359.404 C 270.440 360.786,275.030 363.168,278.000 364.699 C 280.970 366.229,286.424 369.052,290.120 370.971 C 302.183 377.236,306.767 377.870,313.400 374.188 C 321.275 369.817,323.957 362.333,321.636 351.200 C 321.429 350.210,321.067 348.275,320.830 346.900 C 320.594 345.525,320.206 343.275,319.970 341.900 C 319.733 340.525,319.387 338.590,319.200 337.600 C 318.859 335.793,318.265 332.498,317.542 328.400 C 317.328 327.190,316.992 325.300,316.795 324.200 C 316.598 323.100,316.235 321.030,315.988 319.600 C 315.741 318.170,315.387 316.190,315.200 315.200 C 315.013 314.210,314.659 312.230,314.412 310.800 C 314.165 309.370,313.799 307.300,313.597 306.200 C 313.396 305.100,313.123 303.570,312.992 302.800 C 312.391 299.281,311.427 293.911,308.542 278.000 C 303.513 250.267,304.164 248.587,329.668 223.529 C 368.438 185.436,382.655 171.060,383.592 169.000 C 385.072 165.744,385.145 165.506,385.404 163.000 C 386.342 153.937,381.030 146.442,371.763 143.756 C 366.648 142.273,364.429 140.087,364.387 136.492 C 364.351 133.339,360.969 133.015,359.800 136.053 C 358.208 140.191,354.865 141.512,348.752 140.419 C 344.652 139.686,341.600 137.118,341.600 134.401 C 341.600 131.542,341.001 130.933,338.095 130.838 C 336.626 130.791,335.159 130.538,334.835 130.276 C 334.356 129.889,334.309 129.912,334.582 130.400 C 334.855 130.888,334.817 130.907,334.379 130.500 C 334.065 130.209,332.777 130.000,331.296 130.000 C 329.897 130.000,328.839 129.861,328.944 129.690 C 329.049 129.520,327.845 129.329,326.268 129.266 C 324.690 129.202,323.229 128.982,323.020 128.775 C 322.811 128.569,321.585 128.400,320.296 128.400 C 319.007 128.400,318.050 128.243,318.168 128.051 C 318.287 127.860,317.262 127.674,315.892 127.640 C 312.947 127.565,312.120 127.453,311.745 127.078 C 311.086 126.419,310.513 126.925,309.859 128.745 C 308.217 133.309,304.394 134.610,296.581 133.261 C 293.917 132.801,290.261 132.266,285.200 131.595 C 274.295 130.149,268.767 127.971,263.274 122.958 C 258.578 118.672,257.742 117.166,235.756 73.361 C 224.173 50.282,214.182 30.651,213.554 29.736 C 209.798 24.267,202.319 21.395,195.400 22.764 M89.400 136.400 L 88.200 136.705 89.400 136.713 C 90.060 136.717,91.050 136.576,91.600 136.400 L 92.600 136.080 91.600 136.087 C 91.050 136.091,90.060 136.232,89.400 136.400 M84.200 137.200 L 83.000 137.505 84.200 137.525 C 84.860 137.535,85.760 137.389,86.200 137.200 L 87.000 136.856 86.200 136.875 C 85.760 136.886,84.860 137.032,84.200 137.200 M78.800 138.000 L 77.400 138.295 78.800 138.319 C 79.570 138.333,80.560 138.189,81.000 138.000 L 81.800 137.656 81.000 137.681 C 80.560 137.694,79.570 137.838,78.800 138.000 M73.600 138.800 L 72.200 139.095 73.600 139.119 C 74.370 139.133,75.360 138.989,75.800 138.800 L 76.600 138.456 75.800 138.481 C 75.360 138.494,74.370 138.638,73.600 138.800 M68.200 139.600 L 66.600 139.886 68.200 139.915 C 69.080 139.931,70.160 139.789,70.600 139.600 L 71.400 139.256 70.600 139.285 C 70.160 139.301,69.080 139.442,68.200 139.600 M63.000 140.400 L 61.400 140.686 63.000 140.715 C 63.880 140.731,64.960 140.589,65.400 140.400 L 66.200 140.056 65.400 140.085 C 64.960 140.101,63.880 140.242,63.000 140.400 M57.600 141.200 L 56.200 141.495 57.600 141.507 C 58.370 141.515,59.450 141.376,60.000 141.200 L 61.000 140.880 60.000 140.893 C 59.450 140.900,58.370 141.038,57.600 141.200 M52.200 142.000 L 50.600 142.286 52.200 142.315 C 53.080 142.331,54.160 142.189,54.600 142.000 L 55.400 141.656 54.600 141.685 C 54.160 141.701,53.080 141.842,52.200 142.000 M47.000 142.800 L 45.400 143.086 47.000 143.115 C 47.880 143.131,48.960 142.989,49.400 142.800 L 50.200 142.456 49.400 142.485 C 48.960 142.501,47.880 142.642,47.000 142.800 M41.000 143.676 C 35.203 144.589,34.645 144.702,35.693 144.750 C 36.930 144.807,41.989 144.092,43.800 143.605 C 45.413 143.171,43.974 143.207,41.000 143.676 M31.600 145.087 C 29.829 145.289,24.715 146.765,24.247 147.210 C 24.053 147.395,25.313 147.108,27.047 146.573 C 28.781 146.038,30.740 145.582,31.400 145.560 C 32.060 145.538,33.050 145.376,33.600 145.200 C 34.720 144.841,34.079 144.805,31.600 145.087 M22.031 148.437 C 19.947 149.708,16.459 153.769,16.414 154.978 C 16.406 155.186,16.910 154.556,17.533 153.578 C 18.639 151.843,20.801 149.686,22.804 148.321 C 24.217 147.358,23.666 147.441,22.031 148.437 M15.049 157.815 C 14.912 158.173,14.821 158.946,14.846 159.533 C 14.880 160.332,14.970 160.198,15.204 159.000 C 15.535 157.300,15.462 156.740,15.049 157.815 M14.524 163.000 C 14.526 164.320,14.601 164.812,14.690 164.093 C 14.779 163.374,14.777 162.294,14.686 161.693 C 14.595 161.092,14.522 161.680,14.524 163.000 M14.841 166.689 C 14.801 167.564,16.567 172.000,16.955 172.000 C 17.065 172.000,16.775 171.145,16.310 170.100 C 15.846 169.055,15.334 167.660,15.174 167.000 C 14.947 166.068,14.873 165.999,14.841 166.689 M17.940 173.516 C 18.433 174.209,19.044 174.904,19.297 175.060 C 19.550 175.217,19.354 174.777,18.860 174.084 C 18.367 173.391,17.756 172.696,17.503 172.540 C 17.250 172.383,17.446 172.823,17.940 173.516 M30.774 186.261 C 36.178 191.575,40.666 195.859,40.747 195.781 C 40.828 195.703,39.928 194.710,38.747 193.574 C 37.566 192.438,34.620 189.602,32.200 187.270 C 29.780 184.939,26.258 181.584,24.374 179.816 C 22.490 178.047,25.370 180.947,30.774 186.261 M51.567 206.269 C 56.753 211.367,61.052 215.481,61.121 215.412 C 61.228 215.305,51.208 205.369,49.814 204.200 C 49.552 203.980,47.718 202.270,45.738 200.400 C 43.759 198.530,46.382 201.171,51.567 206.269 M62.400 216.498 C 62.400 216.640,64.965 219.240,68.100 222.278 C 71.235 225.315,75.879 229.825,78.420 232.300 C 80.961 234.775,83.147 236.800,83.276 236.800 C 83.406 236.800,80.968 234.325,77.859 231.300 C 74.749 228.275,69.999 223.649,67.303 221.020 C 64.606 218.392,62.400 216.357,62.400 216.498 M87.081 240.900 C 87.762 241.615,89.057 243.265,89.959 244.566 C 90.862 245.868,91.600 246.803,91.600 246.644 C 91.600 245.820,86.810 239.600,86.175 239.600 C 85.992 239.600,86.400 240.185,87.081 240.900 M94.258 254.400 C 94.575 256.125,94.802 256.451,94.794 255.167 C 94.791 254.635,94.611 253.930,94.394 253.600 C 94.118 253.178,94.077 253.415,94.258 254.400 M95.113 259.853 C 95.295 263.184,94.923 267.244,94.001 272.000 C 93.430 274.950,93.147 277.387,93.406 277.127 C 93.540 276.994,93.809 275.831,94.005 274.542 C 94.200 273.254,94.639 270.416,94.980 268.235 C 95.623 264.123,95.721 259.478,95.210 257.400 C 95.048 256.740,95.004 257.844,95.113 259.853 M92.859 279.000 C 92.820 279.660,92.696 280.650,92.583 281.200 L 92.377 282.200 92.808 281.214 C 93.044 280.672,93.168 279.682,93.083 279.014 L 92.928 277.800 92.859 279.000 M92.059 283.800 C 92.020 284.460,91.896 285.450,91.783 286.000 L 91.577 287.000 92.008 286.014 C 92.244 285.472,92.368 284.482,92.283 283.814 L 92.128 282.600 92.059 283.800 M91.259 288.600 C 91.220 289.260,91.096 290.250,90.983 290.800 L 90.777 291.800 91.208 290.814 C 91.444 290.272,91.568 289.282,91.483 288.614 L 91.328 287.400 91.259 288.600 M90.459 293.600 C 90.420 294.150,90.289 295.050,90.167 295.600 C 89.976 296.462,90.008 296.502,90.397 295.891 C 90.646 295.502,90.777 294.602,90.689 293.891 C 90.564 292.887,90.513 292.822,90.459 293.600 M89.454 299.154 C 89.300 300.118,89.258 300.991,89.361 301.094 C 89.630 301.363,90.115 298.545,89.907 297.922 C 89.812 297.636,89.608 298.190,89.454 299.154 M88.864 302.850 C 88.829 303.207,88.698 304.108,88.573 304.850 C 88.388 305.955,88.429 306.071,88.798 305.491 C 89.046 305.102,89.177 304.202,89.089 303.491 C 89.000 302.781,88.899 302.493,88.864 302.850 M87.819 309.127 C 87.655 310.077,87.617 310.950,87.734 311.068 C 88.026 311.359,88.526 308.573,88.300 307.921 C 88.200 307.635,87.984 308.177,87.819 309.127 M87.019 313.927 C 86.855 314.877,86.817 315.750,86.934 315.868 C 87.226 316.159,87.726 313.373,87.500 312.721 C 87.400 312.435,87.184 312.977,87.019 313.927 M86.200 318.800 C 86.046 319.710,86.011 320.544,86.121 320.654 C 86.231 320.764,86.446 320.110,86.600 319.200 C 86.754 318.290,86.789 317.456,86.679 317.346 C 86.569 317.236,86.354 317.890,86.200 318.800 M85.400 323.600 C 85.246 324.510,85.211 325.344,85.321 325.454 C 85.431 325.564,85.646 324.910,85.800 324.000 C 85.954 323.090,85.989 322.256,85.879 322.146 C 85.769 322.036,85.554 322.690,85.400 323.600 M84.600 328.400 C 84.446 329.310,84.411 330.144,84.521 330.254 C 84.631 330.364,84.846 329.710,85.000 328.800 C 85.154 327.890,85.189 327.056,85.079 326.946 C 84.969 326.836,84.754 327.490,84.600 328.400 M194.400 329.244 C 189.458 330.555,187.471 331.429,178.400 336.282 C 176.750 337.164,174.590 338.317,173.600 338.843 C 172.610 339.369,171.740 339.935,171.667 340.100 C 171.593 340.265,171.203 340.400,170.800 340.400 C 170.397 340.400,170.007 340.535,169.933 340.700 C 169.860 340.865,168.720 341.560,167.400 342.244 C 161.034 345.544,158.897 346.800,159.650 346.800 C 159.766 346.800,161.647 345.843,163.830 344.674 C 166.014 343.504,169.960 341.401,172.600 340.000 C 175.240 338.599,178.480 336.855,179.800 336.125 C 187.533 331.850,192.646 329.854,197.400 329.254 L 200.200 328.901 198.000 328.887 C 196.790 328.879,195.170 329.039,194.400 329.244 M83.782 333.382 C 83.629 334.402,83.594 335.327,83.704 335.437 C 83.814 335.547,84.029 334.802,84.182 333.782 C 84.335 332.761,84.370 331.837,84.260 331.727 C 84.150 331.617,83.935 332.361,83.782 333.382 M83.018 338.218 C 82.865 339.239,82.822 340.155,82.922 340.255 C 83.022 340.355,83.229 339.602,83.382 338.582 C 83.535 337.561,83.578 336.645,83.478 336.545 C 83.378 336.445,83.171 337.198,83.018 338.218 M82.269 342.756 C 82.121 343.495,82.020 344.483,82.044 344.950 C 82.068 345.418,82.247 344.990,82.442 344.000 C 82.637 343.010,82.738 342.023,82.667 341.806 C 82.596 341.590,82.417 342.017,82.269 342.756 M81.453 347.636 C 81.314 348.331,81.221 349.373,81.247 349.950 C 81.272 350.528,81.455 350.027,81.652 348.839 C 82.037 346.521,81.873 345.534,81.453 347.636 M157.900 347.429 C 156.405 348.240,156.496 348.578,158.000 347.800 C 158.660 347.459,159.200 347.094,159.200 346.990 C 159.200 346.732,159.157 346.747,157.900 347.429 M149.800 351.739 C 148.040 352.684,145.160 354.222,143.400 355.158 C 141.640 356.093,140.020 357.051,139.800 357.286 C 139.580 357.521,140.831 356.949,142.579 356.013 C 144.327 355.078,147.297 353.502,149.179 352.510 C 152.229 350.903,153.706 349.980,153.180 350.010 C 153.081 350.016,151.560 350.794,149.800 351.739 M80.653 352.436 C 80.514 353.131,80.421 354.173,80.447 354.750 C 80.472 355.328,80.655 354.827,80.852 353.639 C 81.237 351.321,81.073 350.334,80.653 352.436 M79.803 358.900 C 79.657 360.495,79.687 362.190,79.869 362.668 C 80.088 363.242,80.225 362.262,80.275 359.768 C 80.364 355.268,80.168 354.908,79.803 358.900 M135.600 359.265 C 133.569 360.438,133.119 361.033,135.000 360.059 C 137.014 359.017,137.916 358.406,137.400 358.435 C 137.180 358.447,136.370 358.821,135.600 359.265 M127.900 363.426 C 126.855 363.970,126.000 364.505,126.000 364.614 C 126.000 364.724,126.900 364.357,128.000 363.800 C 129.100 363.243,130.000 362.700,130.000 362.593 C 130.000 362.329,130.036 362.314,127.900 363.426 M80.427 364.636 C 80.347 367.122,85.283 373.670,88.323 375.111 L 89.400 375.621 88.400 374.912 C 84.810 372.365,82.022 368.806,80.959 365.413 C 80.664 364.471,80.442 364.148,80.427 364.636 M121.090 367.068 C 119.600 367.863,118.452 368.585,118.538 368.672 C 118.705 368.839,123.131 366.537,123.780 365.946 C 124.436 365.348,123.882 365.579,121.090 367.068 M113.530 371.116 C 111.181 372.372,109.111 373.560,108.930 373.755 C 108.528 374.187,117.244 369.658,117.780 369.156 C 118.454 368.524,117.876 368.791,113.530 371.116 M106.400 374.801 C 105.630 375.203,104.659 375.641,104.243 375.775 C 103.826 375.909,103.582 376.115,103.700 376.233 C 103.958 376.491,106.473 375.475,107.697 374.617 C 108.878 373.790,108.136 373.895,106.400 374.801 M91.800 376.800 C 92.240 376.989,92.870 377.144,93.200 377.144 C 93.578 377.144,93.504 377.017,93.000 376.800 C 92.560 376.611,91.930 376.456,91.600 376.456 C 91.222 376.456,91.296 376.583,91.800 376.800 M95.900 377.493 C 96.835 377.577,98.365 377.577,99.300 377.493 C 100.235 377.409,99.470 377.340,97.600 377.340 C 95.730 377.340,94.965 377.409,95.900 377.493 " stroke="none" fill="#fbac1c" fill-rule="evenodd"></path><path id="path4" d="M117.000 260.066 C 111.432 263.138,110.247 273.745,115.126 276.839 C 121.032 280.585,126.498 275.776,126.574 266.769 C 126.621 261.282,121.409 257.633,117.000 260.066 M110.960 290.362 C 107.851 291.774,107.397 292.974,104.811 306.600 C 103.934 311.220,103.034 315.900,102.810 317.000 C 102.586 318.100,102.042 320.890,101.600 323.200 C 100.515 328.877,100.000 331.497,99.594 333.400 C 97.924 341.244,97.804 343.906,99.028 346.002 C 101.793 350.736,108.839 350.679,111.303 345.903 C 111.728 345.079,112.684 341.299,113.427 337.503 C 114.170 333.706,114.949 329.790,115.157 328.800 C 115.364 327.810,115.741 325.830,115.994 324.400 C 116.247 322.970,116.607 321.080,116.794 320.200 C 117.200 318.297,117.715 315.677,118.800 310.000 C 119.952 303.973,120.416 301.626,120.833 299.723 C 122.374 292.681,117.024 287.609,110.960 290.362 " stroke="none" fill="#fcfbf6" fill-rule="evenodd"></path></g></svg>